{"title":"Pedro Costa - Ne Change Rien - 2009","uid":10484069,"size":1783137714,"categoryP":"video","categoryS":"movies","magnet":"?xt=urn:btih:ba201efdc84db0ce9b19196fa8ac6fd5f9544c57&amp;dn=Pedro+Costa+-+Ne+Change+Rien+-+2009&amp;tr=udp%3A%2F%2Ftracker.openbittorrent.com%3A80&amp;tr=udp%3A%2F%2Fopen.demonii.com%3A1337&amp;tr=udp%3A%2F%2Ftracker.coppersurfer.tk%3A6969&amp;tr=udp%3A%2F%2Fexodus.desync.com%3A6969","seeders":4,"leechers":0,"uploader":"rpessoa","files":3,"time":1404439669,"description":"Intimate portrait of the French actress/singer Jeanne Balibar.\n &lt;a href=&quot;\nhttp://www.imdb.com/title/tt1520367/&quot; rel=&quot;nofollow&quot; target=&quot;_NEW&quot;&gt;\nhttp://www.imdb.com/title/tt1520367/&lt;/a&gt;\n\nGeneral\nComplete name : Ne Change Rien.2009.Pedro Costa.avi\nFormat : AVI\nFormat/Info : Audio Video Interleave\nFile size : 1.66 GiB\nDuration : 1h 39mn\nOverall bit rate : 2 397 Kbps\nWriting application : VirtualDubMod 1.5.4.1 (build 2178/release)\nWriting library : VirtualDubMod build 2178/release\n\nVideo\nID : 0\nFormat : MPEG-4 Visual\nFormat profile : Advanced Simple@L5\nFormat settings, BVOP : No\nFormat settings, QPel : No\nFormat settings, GMC : No warppoints\nFormat settings, Matrix : Custom\nCodec ID : XVID\nCodec ID/Hint : XviD\nDuration : 1h 39mn\nBit rate : 2 199 Kbps\nWidth : 720 pixels\nHeight : 544 pixels\nDisplay aspect ratio : 4:3\nFrame rate : 25.000 fps\nColor space : YUV\nChroma subsampling : 4:2:0\nBit depth : 8 bits\nScan type : Progressive\nCompression mode : Lossy\nBits/(Pixel*Frame) : 0.225\nStream size : 1.52 GiB (92%)\nWriting library : XviD 1.2.1 (UTC 2008-12-04)\n\nAudio\nID : 1\nFormat : AC-3\nFormat/Info : Audio Coding 3\nMode extension : CM (complete main)\nCodec ID : 2000\nDuration : 1h 39mn\nBit rate mode : Constant\nBit rate : 192 Kbps\nChannel(s) : 2 channels\nChannel positions : Front: L R\nSampling rate : 48.0 KHz\nBit depth : 16 bits\nCompression mode : Lossy\nStream size : 136 MiB (8%)\nAlignment : Split accross interleaves\nInterleave, duration : 96 ms (2.40 video frames)\nInterleave, preload duration : 96 ms\nLanguage : French\n","torrent":{"xt":"urn:btih:ba201efdc84db0ce9b19196fa8ac6fd5f9544c57","amp;dn":"Pedro+Costa+-+Ne+Change+Rien+-+2009","amp;tr":["udp%3A%2F%2Ftracker.openbittorrent.com%3A80","udp%3A%2F%2Fopen.demonii.com%3A1337","udp%3A%2F%2Ftracker.coppersurfer.tk%3A6969","udp%3A%2F%2Fexodus.desync.com%3A6969"],"infoHash":"ba201efdc84db0ce9b19196fa8ac6fd5f9544c57","infoHashBuffer":{"type":"Buffer","data":[186,32,30,253,200,77,176,206,155,25,25,111,168,172,111,213,249,84,76,87]},"announce":[],"urlList":[]}}